<svg width="53" height="34" viewBox="0 0 53 34" fill="none" xmlns="http://www.w3.org/2000/svg">
<path d="M10.2148 12.2002H0.298828L10.7657 33.6848H20.6816L10.2148 12.2002Z" fill="#0B92D2"/>
<path d="M30.5976 6.69153H20.6816L31.883 33.685H41.799L30.5976 6.69153Z" fill="#137BC0"/>
<path d="M20.6817 6.69153H30.5977L20.6817 33.685H10.7657L20.6817 6.69153Z" fill="#0E763F"/>
<path fill-rule="evenodd" clip-rule="evenodd" d="M15.0283 22.0808L10.7656 33.6848H20.6816L15.0283 22.0808Z" fill="#FFD100"/>
<path fill-rule="evenodd" clip-rule="evenodd" d="M10.7656 33.6848H20.6816L15.0283 22.0808L10.7656 33.6848Z" fill="#FFD100"/>
<path d="M43.084 0.815186H53L41.615 33.6847H31.6991L43.084 0.815186Z" fill="#E20613"/>
<path fill-rule="evenodd" clip-rule="evenodd" d="M36.294 20.4192L31.7828 33.4436L31.8828 33.6848H41.7988L41.6987 33.4436L36.294 20.4192Z" fill="#0E4B9C"/>
<path fill-rule="evenodd" clip-rule="evenodd" d="M41.6152 33.6848L41.6987 33.4436L36.294 20.4192L31.7828 33.4436L31.6992 33.6848H41.6152Z" fill="#0E4B9C"/>
</svg>
